{
    "asset" : {
        "generator" : "Khronos glTF Blender I/O v0.9.36",
        "version" : "2.0"
    },
    "scene" : 0,
    "scenes" : [
        {
            "name" : "Scene",
            "nodes" : [
                0,
                1,
                2
            ]
        }
    ],
    "nodes" : [
        {
            "name" : "Camera",
            "rotation" : [
                0.6735967397689819,
                0.03747252747416496,
                -0.0039154221303761005,
                0.7381381392478943
            ],
            "translation" : [
                0.8514701724052429,
                4.602657794952393,
                18.390596389770508
            ]
        },
        {
            "name" : "Spot",
            "translation" : [
                -2.1724352836608887,
                22.499853134155273,
                -0.6477313041687012
            ]
        },
        {
            "extras" : {},
            "mesh" : 0,
            "name" : "Bear",
            "rotation" : [
                0.014789270237088203,
                -0.36663299798965454,
                -0.007978733628988266,
                -0.9302138686180115
            ],
            "translation" : [
                -2.2307229042053223,
                1.577486515045166,
                -0.033251285552978516
            ]
        }
    ],
    "materials" : [
        {
            "doubleSided" : true,
            "name" : "brown",
            "pbrMetallicRoughness" : {
                "baseColorFactor" : [
                    0.33245161175727844,
                    0.0666259378194809,
                    0.010960101149976254,
                    1
                ],
                "metallicFactor" : 0.8409090638160706,
                "roughnessFactor" : 0.8063241243362427
            }
        },
        {
            "doubleSided" : true,
            "name" : "light brown",
            "pbrMetallicRoughness" : {
                "baseColorFactor" : [
                    0.9301111102104187,
                    0.8962695598602295,
                    0.3139888048171997,
                    1
                ],
                "metallicFactor" : 0.5043478608131409,
                "roughnessFactor" : 0.7217391729354858
            }
        },
        {
            "doubleSided" : true,
            "name" : "almost black",
            "pbrMetallicRoughness" : {
                "baseColorFactor" : [
                    0.013833371922373772,
                    0.013833371922373772,
                    0.013833371922373772,
                    1
                ],
                "metallicFactor" : 0.7739130258560181,
                "roughnessFactor" : 0.09999999403953552
            }
        },
        {
            "doubleSided" : true,
            "name" : "almost white",
            "pbrMetallicRoughness" : {
                "baseColorFactor" : [
                    0.7482059001922607,
                    0.7482059001922607,
                    0.7482059001922607,
                    1
                ],
                "metallicFactor" : 0.23675888776779175,
                "roughnessFactor" : 0.3863636255264282
            }
        }
    ],
    "meshes" : [
        {
            "name" : "Cilindro.001",
            "primitives" : [
                {
                    "attributes" : {
                        "POSITION" : 0,
                        "NORMAL" : 1,
                        "TEXCOORD_0" : 2,
                        "COLOR_0" : 3,
                        "JOINTS_0" : 4,
                        "WEIGHTS_0" : 5
                    },
                    "indices" : 6,
                    "material" : 0
                },
                {
                    "attributes" : {
                        "POSITION" : 7,
                        "NORMAL" : 8,
                        "TEXCOORD_0" : 9,
                        "COLOR_0" : 10,
                        "JOINTS_0" : 11,
                        "WEIGHTS_0" : 12
                    },
                    "indices" : 13,
                    "material" : 1
                },
                {
                    "attributes" : {
                        "POSITION" : 14,
                        "NORMAL" : 15,
                        "TEXCOORD_0" : 16,
                        "COLOR_0" : 17,
                        "JOINTS_0" : 18,
                        "WEIGHTS_0" : 19
                    },
                    "indices" : 20,
                    "material" : 2
                },
                {
                    "attributes" : {
                        "POSITION" : 21,
                        "NORMAL" : 22,
                        "TEXCOORD_0" : 23,
                        "COLOR_0" : 24,
                        "JOINTS_0" : 25,
                        "WEIGHTS_0" : 26
                    },
                    "indices" : 27,
                    "material" : 3
                }
            ]
        }
    ],
    "accessors" : [
        {
            "bufferView" : 0,
            "componentType" : 5126,
            "count" : 12644,
            "max" : [
                1.8142954111099243,
                4.336982727050781,
                1.7000032663345337
            ],
            "min" : [
                -1.8051307201385498,
                -1.8054735660552979,
                -1.2428919076919556
            ],
            "type" : "VEC3"
        },
        {
            "bufferView" : 1,
            "componentType" : 5126,
            "count" : 12644,
            "type" : "VEC3"
        },
        {
            "bufferView" : 2,
            "componentType" : 5126,
            "count" : 12644,
            "type" : "VEC2"
        },
        {
            "bufferView" : 3,
            "componentType" : 5126,
            "count" : 12644,
            "type" : "VEC4"
        },
        {
            "bufferView" : 4,
            "componentType" : 5123,
            "count" : 12644,
            "type" : "VEC4"
        },
        {
            "bufferView" : 5,
            "componentType" : 5126,
            "count" : 12644,
            "type" : "VEC4"
        },
        {
            "bufferView" : 6,
            "componentType" : 5123,
            "count" : 71772,
            "type" : "SCALAR"
        },
        {
            "bufferView" : 7,
            "componentType" : 5126,
            "count" : 667,
            "max" : [
                1.2049697637557983,
                4.1225996017456055,
                1.5102595090866089
            ],
            "min" : [
                -1.2388824224472046,
                1.8130477666854858,
                0.10619533061981201
            ],
            "type" : "VEC3"
        },
        {
            "bufferView" : 8,
            "componentType" : 5126,
            "count" : 667,
            "type" : "VEC3"
        },
        {
            "bufferView" : 9,
            "componentType" : 5126,
            "count" : 667,
            "type" : "VEC2"
        },
        {
            "bufferView" : 10,
            "componentType" : 5126,
            "count" : 667,
            "type" : "VEC4"
        },
        {
            "bufferView" : 11,
            "componentType" : 5123,
            "count" : 667,
            "type" : "VEC4"
        },
        {
            "bufferView" : 12,
            "componentType" : 5126,
            "count" : 667,
            "type" : "VEC4"
        },
        {
            "bufferView" : 13,
            "componentType" : 5123,
            "count" : 3216,
            "type" : "SCALAR"
        },
        {
            "bufferView" : 14,
            "componentType" : 5126,
            "count" : 4700,
            "max" : [
                0.4362858533859253,
                2.9888603687286377,
                1.4907172918319702
            ],
            "min" : [
                -0.46812114119529724,
                2.2204110622406006,
                0.7335601449012756
            ],
            "type" : "VEC3"
        },
        {
            "bufferView" : 15,
            "componentType" : 5126,
            "count" : 4700,
            "type" : "VEC3"
        },
        {
            "bufferView" : 16,
            "componentType" : 5126,
            "count" : 4700,
            "type" : "VEC2"
        },
        {
            "bufferView" : 17,
            "componentType" : 5126,
            "count" : 4700,
            "type" : "VEC4"
        },
        {
            "bufferView" : 18,
            "componentType" : 5123,
            "count" : 4700,
            "type" : "VEC4"
        },
        {
            "bufferView" : 19,
            "componentType" : 5126,
            "count" : 4700,
            "type" : "VEC4"
        },
        {
            "bufferView" : 20,
            "componentType" : 5123,
            "count" : 27828,
            "type" : "SCALAR"
        },
        {
            "bufferView" : 21,
            "componentType" : 5126,
            "count" : 4122,
            "max" : [
                0.34790632128715515,
                2.904003143310547,
                1.0895874500274658
            ],
            "min" : [
                -0.36007076501846313,
                2.754185438156128,
                0.9505742788314819
            ],
            "type" : "VEC3"
        },
        {
            "bufferView" : 22,
            "componentType" : 5126,
            "count" : 4122,
            "type" : "VEC3"
        },
        {
            "bufferView" : 23,
            "componentType" : 5126,
            "count" : 4122,
            "type" : "VEC2"
        },
        {
            "bufferView" : 24,
            "componentType" : 5126,
            "count" : 4122,
            "type" : "VEC4"
        },
        {
            "bufferView" : 25,
            "componentType" : 5123,
            "count" : 4122,
            "type" : "VEC4"
        },
        {
            "bufferView" : 26,
            "componentType" : 5126,
            "count" : 4122,
            "type" : "VEC4"
        },
        {
            "bufferView" : 27,
            "componentType" : 5123,
            "count" : 24687,
            "type" : "SCALAR"
        }
    ],
    "bufferViews" : [
        {
            "buffer" : 0,
            "byteLength" : 151728,
            "byteOffset" : 0
        },
        {
            "buffer" : 0,
            "byteLength" : 151728,
            "byteOffset" : 151728
        },
        {
            "buffer" : 0,
            "byteLength" : 101152,
            "byteOffset" : 303456
        },
        {
            "buffer" : 0,
            "byteLength" : 202304,
            "byteOffset" : 404608
        },
        {
            "buffer" : 0,
            "byteLength" : 101152,
            "byteOffset" : 606912
        },
        {
            "buffer" : 0,
            "byteLength" : 202304,
            "byteOffset" : 708064
        },
        {
            "buffer" : 0,
            "byteLength" : 143544,
            "byteOffset" : 910368
        },
        {
            "buffer" : 0,
            "byteLength" : 8004,
            "byteOffset" : 1053912
        },
        {
            "buffer" : 0,
            "byteLength" : 8004,
            "byteOffset" : 1061916
        },
        {
            "buffer" : 0,
            "byteLength" : 5336,
            "byteOffset" : 1069920
        },
        {
            "buffer" : 0,
            "byteLength" : 10672,
            "byteOffset" : 1075256
        },
        {
            "buffer" : 0,
            "byteLength" : 5336,
            "byteOffset" : 1085928
        },
        {
            "buffer" : 0,
            "byteLength" : 10672,
            "byteOffset" : 1091264
        },
        {
            "buffer" : 0,
            "byteLength" : 6432,
            "byteOffset" : 1101936
        },
        {
            "buffer" : 0,
            "byteLength" : 56400,
            "byteOffset" : 1108368
        },
        {
            "buffer" : 0,
            "byteLength" : 56400,
            "byteOffset" : 1164768
        },
        {
            "buffer" : 0,
            "byteLength" : 37600,
            "byteOffset" : 1221168
        },
        {
            "buffer" : 0,
            "byteLength" : 75200,
            "byteOffset" : 1258768
        },
        {
            "buffer" : 0,
            "byteLength" : 37600,
            "byteOffset" : 1333968
        },
        {
            "buffer" : 0,
            "byteLength" : 75200,
            "byteOffset" : 1371568
        },
        {
            "buffer" : 0,
            "byteLength" : 55656,
            "byteOffset" : 1446768
        },
        {
            "buffer" : 0,
            "byteLength" : 49464,
            "byteOffset" : 1502424
        },
        {
            "buffer" : 0,
            "byteLength" : 49464,
            "byteOffset" : 1551888
        },
        {
            "buffer" : 0,
            "byteLength" : 32976,
            "byteOffset" : 1601352
        },
        {
            "buffer" : 0,
            "byteLength" : 65952,
            "byteOffset" : 1634328
        },
        {
            "buffer" : 0,
            "byteLength" : 32976,
            "byteOffset" : 1700280
        },
        {
            "buffer" : 0,
            "byteLength" : 65952,
            "byteOffset" : 1733256
        },
        {
            "buffer" : 0,
            "byteLength" : 49374,
            "byteOffset" : 1799208
        }
    ],
    "buffers" : [
        {
            "byteLength" : 1848584,
            "uri" : "data:application/octet-stream;base64,"
        }
    ]
}
